#!OML:ASF H:\LiuWeirdWalks\Patient Classification 1\Patient 1\Session 1\male.ASF
:FULLY-SPECIFIED
:DEGREES
2128
root -0.126097 17.4235 -30.0241 180.502 -67.4508 177.604
lowerback 5.48403 1.43759 -2.23183
upperback -1.60656 1.86653 3.00481
thorax -4.92311 1.03009 4.20349
lowerneck -15.5922 4.3287 5.65421
upperneck 25.0984 7.31965 -11.9896
head 11.4284 2.17027 -4.36602
rclavicle -3.56818e-014 1.59028e-015
rhumerus -35.9527 -18.3367 -67.393
rradius 22.735
rwrist -1.13817
rhand -18.6497 -4.75961
rfingers 7.12502
rthumb 7.64332 -34.6015
lclavicle -3.56818e-014 1.59028e-015
lhumerus -24.7333 -1.47396 86.2151
lradius 29.781
lwrist 8.57642
lhand -16.223 0.340686
lfingers 7.12502
lthumb 9.98498 30.0838
rfemur -14.2473 -21.1702 16.3444
rtibia 59.3915
rfoot -16.4545 -39.2729
rtoes 8.109
lfemur -11.7994 2.65336 -24.0459
ltibia 37.8618
lfoot -17.1613 19.5138
ltoes -3.48604
2129
root -0.14427 17.4253 -30.0307 181.039 -68.7276 176.996
lowerback 5.54313 1.32019 -2.50097
upperback -1.67214 1.68947 2.92877
thorax -5.01518 0.95318 4.29322
lowerneck -15.4253 4.49419 6.20397
upperneck 25.1237 7.50512 -12.3087
head 11.462 2.27527 -4.55824
rclavicle -6.60959e-015 -1.35174e-014
rhumerus -35.9405 -17.8947 -67.7166
rradius 22.7912
rwrist -1.11808
rhand -18.6708 -4.69687
rfingers 7.12502
rthumb 7.62286 -34.5395
lclavicle -6.60959e-015 -1.35174e-014
lhumerus -21.9767 1.43329 85.2162
lradius 26.1247
lwrist 6.84675
lhand -16.8199 0.0869602
lfingers 7.12502
lthumb 9.40909 29.8569
rfemur -14.6139 -20.7695 16.0807
rtibia 60.2668
rfoot -16.4527 -38.3013
rtoes 7.64561
lfemur -11.6456 2.05981 -24.2625
ltibia 37.6511
lfoot -17.0757 18.9221
ltoes -3.62968
2130
root -0.161503 17.4272 -30.0391 181.602 -70.0234 176.356
lowerback 5.60668 1.1214 -2.84366
upperback -1.70499 1.39775 2.87787
thorax -5.06591 0.821054 4.4636
lowerneck -15.2577 4.745 6.85499
upperneck 25.0529 7.80026 -12.6915
head 11.4819 2.43655 -4.77244
rclavicle 4.01545e-014 -2.22639e-014
rhumerus -35.7782 -17.3378 -68.1787
rradius 22.8281
rwrist -0.990495
rhand -18.663 -4.67035
rfingers 7.12502
rthumb 7.6304 -34.5127
lclavicle 4.01545e-014 -2.22639e-014
lhumerus -19.8644 5.76676 84.0435
lradius 23.1976
lwrist 3.93131
lhand -17.3039 -0.210492
lfingers 7.12502
lthumb 8.94211 29.58
rfemur -14.9213 -20.2556 15.8491
rtibia 60.9916
rfoot -16.4999 -37.1356
rtoes 7.10584
lfemur -11.4929 1.43948 -24.4522
ltibia 37.4661
lfoot -17.0225 18.3115
ltoes -3.70499
2131
root -0.176805 17.4288 -30.049 182.102 -71.3609 175.788
lowerback 5.68845 0.875561 -3.19227
upperback -1.72253 1.04233 2.86276
thorax -5.10234 0.657496 4.68224
lowerneck -15.0842 5.02791 7.49741
upperneck 24.9116 8.14428 -13.0822
head 11.4843 2.62146 -4.97799
rclavicle 1.26278e-013 1.90833e-014
rhumerus -35.5304 -16.6969 -68.707
rradius 22.8415
rwrist -0.864451
rhand -18.699 -4.634
rfingers 7.12502
rthumb 7.59568 -34.4776
lclavicle 1.26278e-013 1.90833e-014
lhumerus -18.7402 11.0209 82.7391
lradius 21.4022
lwrist 0.226697
lhand -17.6505 -0.45746
lfingers 7.12502
lthumb 8.60766 29.3471
rfemur -15.1783 -19.6506 15.6974
rtibia 61.559
rfoot -16.5823 -35.7973
rtoes 6.47744
lfemur -11.3643 0.81808 -24.5731
ltibia 37.3195
lfoot -16.9589 17.6747
ltoes -3.8335
2132
root -0.19009 17.4304 -30.0614 182.666 -72.748 175.175
lowerback 5.76509 0.65018 -3.52248
upperback -1.73481 0.715132 2.857
thorax -5.12933 0.507223 4.89813
lowerneck -14.9715 5.25854 7.96082
upperneck 24.8275 8.4375 -13.3718
head 11.5049 2.774 -5.12316
rclavicle 2.87741e-014 -1.03368e-014
rhumerus -35.2928 -16.1165 -69.1706
rradius 22.8566
rwrist -0.786522
rhand -18.767 -4.60533
rfingers 7.12502
rthumb 7.5301 -34.4513
lclavicle 2.87741e-014 -1.03368e-014
lhumerus -18.3641 16.376 81.4223
lradius 20.529
lwrist -3.61774
lhand -17.898 -0.643189
lfingers 7.12502
lthumb 8.36875 29.171
rfemur -15.4156 -18.9656 15.5914
rtibia 61.975
rfoot -16.676 -34.3246
rtoes 5.66263
lfemur -11.2805 0.172804 -24.6654
ltibia 37.2141
lfoot -16.9069 17.006
ltoes -3.96574
2133
root -0.201315 17.4315 -30.0757 183.18 -74.175 174.627
lowerback 5.8484 0.503913 -3.74092
upperback -1.75156 0.501402 2.85714
thorax -5.17321 0.410147 5.04539
lowerneck -14.8915 5.37681 8.18237
upperneck 24.781 8.60072 -13.5343
head 11.5125 2.85714 -5.19802
rclavicle -8.44835e-015 2.94201e-014
rhumerus -35.1608 -15.7219 -69.4564
rradius 22.8955
rwrist -0.746116
rhand -18.8941 -4.56074
rfingers 7.12502
rthumb 7.40738 -34.4111
lclavicle -8.44835e-015 2.94201e-014
lhumerus -18.3966 20.8582 80.2361
lradius 20.1936
lwrist -6.78722
lhand -18.1455 -0.736882
lfingers 7.12502
lthumb 8.12987 29.0867
rfemur -15.6273 -18.2202 15.561
rtibia 62.242
rfoot -16.7889 -32.7599
rtoes 4.86277
lfemur -11.2348 -0.486288 -24.6914
ltibia 37.1538
lfoot -16.8695 16.3096
ltoes -4.10097
2134
root -0.211353 17.433 -30.0925 183.645 -75.6485 174.147
lowerback 5.93234 0.435283 -3.84337
upperback -1.77881 0.399895 2.85855
thorax -5.23908 0.365718 5.11661
lowerneck -14.8579 5.38468 8.16498
upperneck 24.7987 8.63504 -13.5639
head 11.518 2.87077 -5.20174
rclavicle 9.0447e-015 -1.11319e-014
rhumerus -35.1321 -15.5301 -69.5544
rradius 22.9522
rwrist -0.765295
rhand -18.9578 -4.54196
rfingers 7.12502
rthumb 7.34591 -34.3944
lclavicle 9.0447e-015 -1.11319e-014
lhumerus -18.7502 23.8239 79.1838
lradius 20.2999
lwrist -8.60824
lhand -18.4395 -0.74653
lfingers 7.12502
lthumb 7.8462 29.0879
rfemur -15.8208 -17.4293 15.6057
rtibia 62.3657
rfoot -16.9371 -31.1366
rtoes 3.82713
lfemur -11.2258 -1.1539 -24.6541
ltibia 37.1237
lfoot -16.8266 15.5993
ltoes -4.31417
2135
root -0.22142 17.4351 -30.112 184.062 -77.151 173.733
lowerback 6.00315 0.447318 -3.86472
upperback -1.81298 0.41341 2.87946
thorax -5.31754 0.376334 5.15029
lowerneck -14.823 5.30133 8.01319
upperneck 24.8023 8.56295 -13.5607
head 11.4949 2.8279 -5.18483
rclavicle -5.56597e-015 9.54166e-015
rhumerus -35.2013 -15.5187 -69.4517
rradius 23.0174
rwrist -0.800873
rhand -19.0474 -4.51712
rfingers 7.12502
rthumb 7.2594 -34.3726
lclavicle -5.56597e-015 9.54166e-015
lhumerus -19.2773 25.0236 78.3926
lradius 20.7297
lwrist -8.78181
lhand -18.8752 -0.680229
lfingers 7.12502
lthumb 7.4256 29.1694
rfemur -15.9957 -16.5968 15.709
rtibia 62.3495
rfoot -17.1035 -29.425
rtoes 2.76725
lfemur -11.2431 -1.82992 -24.5592
ltibia 37.1166
lfoot -16.8095 14.8709
ltoes -4.53095
2136
root -0.232131 17.4382 -30.1341 184.423 -78.662 173.371
lowerback 6.07105 0.487781 -3.81345
upperback -1.83242 0.470234 2.88531
thorax -5.3829 0.40507 5.12163
lowerneck -14.8054 5.19728 7.88325
upperneck 24.782 8.4548 -13.5606
head 11.4626 2.77165 -5.17702
rclavicle -1.93815e-014 3.97569e-015
rhumerus -35.2961 -15.7015 -69.2672
rradius 23.0686
rwrist -0.653231
rhand -19.0266 -4.53129
rfingers 7.12502
rthumb 7.2795 -34.3861
lclavicle -1.93815e-014 3.97569e-015
lhumerus -20.1394 24.6955 77.7086
lradius 21.6666
lwrist -7.45178
lhand -19.4508 -0.511785
lfingers 7.12502
lthumb 6.86996 29.3567
rfemur -16.1317 -15.6962 15.8542
rtibia 62.1963
rfoot -17.3295 -27.6423
rtoes 1.66187
lfemur -11.2554 -2.49233 -24.4203
ltibia 37.114
lfoot -16.8011 14.1434
ltoes -4.79031
2137
root -0.243636 17.4411 -30.1581 184.736 -80.1812 173.064
lowerback 6.14024 0.499793 -3.75091
upperback -1.84194 0.489997 2.89305
thorax -5.43396 0.414433 5.09237
lowerneck -14.8089 5.12517 7.78463
upperneck 24.7427 8.38125 -13.5529
head 11.4334 2.73538 -5.16521
rclavicle -4.96962e-017 2.70347e-014
rhumerus -35.3294 -15.8416 -69.1568
rradius 23.0827
rwrist -0.545039
rhand -19.0563 -4.52195
rfingers 7.12502
rthumb 7.25081 -34.3777
lclavicle -4.96962e-017 2.70347e-014
lhumerus -21.1585 24.1111 77.0363
lradius 22.8227
lwrist -5.82222
lhand -19.9326 -0.353389
lfingers 7.12502
lthumb 6.40487 29.5298
rfemur -16.2407 -14.7637 16.0365
rtibia 61.9115
rfoot -17.5211 -25.824
rtoes 0.422107
lfemur -11.2742 -3.14011 -24.2446
ltibia 37.1093
lfoot -16.7925 13.4296
ltoes -5.09907
2138
root -0.2561 17.4446 -30.1837 185.121 -81.7034 172.685
lowerback 6.20823 0.47005 -3.71795
upperback -1.83517 0.451699 2.90249
thorax -5.46078 0.395118 5.08798
lowerneck -14.8184 5.10421 7.77038
upperneck 24.637 8.36432 -13.5807
head 11.3936 2.73148 -5.17
rclavicle 1.21259e-014 8.74653e-015
rhumerus -35.2756 -15.9149 -69.1431
rradius 23.0654
rwrist -0.459357
rhand -19.0975 -4.51237
rfingers 7.12502
rthumb 7.21106 -34.3695
lclavicle 1.21259e-014 8.74653e-015
lhumerus -22.2072 23.6228 76.3368
lradius 24.0585
lwrist -4.17304
lhand -20.306 -0.224064
lfingers 7.12502
lthumb 6.04441 29.6697
rfemur -16.3263 -13.7786 16.2263
rtibia 61.5036
rfoot -17.7326 -23.9864
rtoes -0.957386
lfemur -11.2905 -3.78582 -24.057
ltibia 37.0921
lfoot -16.7999 12.7172
ltoes -5.39119
